<?xml version="1.0" encoding="utf-8"?>
<!-- Generator: Adobe Illustrator 19.0.0, SVG Export Plug-In . SVG Version: 6.00 Build 0)  -->
<svg version="1.1" id="Layer_1" xmlns="http://www.w3.org/2000/svg" xmlns:xlink="http://www.w3.org/1999/xlink" x="0px" y="0px"
	 viewBox="0 0 1200 1000" style="enable-background:new 0 0 1200 1000;" xml:space="preserve">
<style type="text/css">
	.st0{fill:#151011;}
</style>
<g id="XMLID_44_">
	<g id="XMLID_89_">
		<path id="XMLID_102_" d="M139.3,623.2c1.5,7.1,3.8,14.3,7.1,21.4c3.2,7,7.4,13.8,12.5,20.1c2.8,5.2,6.2,10.4,10.2,15.2
			c5.2,6.5,11.4,12.4,18.4,17.6c3.5,2.5,7.2,5,11.2,7.1c1.9,1.1,4,2,6,3l3.1,1.3c1,0.5,2.1,0.9,3.1,1.2c17,6.4,36.4,8.2,55,4.2
			c18.7-3.8,36.5-13.5,50-27.3c13.6-13.9,22.8-31.8,26.3-50.6c1.8-9.5,2.1-19.1,1.2-28.5c0.5-14-2-27.8-7-40.3
			c-0.4-1.1-0.8-2.1-1.3-3.1l-1.4-3.1c-1-2-2-4-3.1-5.9c-2.2-3.9-4.7-7.5-7.3-11c-5.3-6.9-11.4-13-18-18.1
			c-6.6-5.1-13.6-9.2-20.7-12.3c-7.2-3.1-14.5-5.3-21.5-6.6c-4.1-0.8-8.2-1.2-12.2-1.4c-13.2-2.1-25.7-1.3-36.5,1.1
			c-11.5,2.5-20.9,6.8-28.2,11c-7.3,4.2-12.4,8.5-15.8,11.5c-1.7,1.5-2.9,2.7-3.7,3.5c-0.8,0.8-1.3,1.2-1.3,1.2s0.4-0.4,1.3-1.2
			c0.8-0.8,2-2.1,3.7-3.5c3.4-3,8.5-7.2,15.8-11.4c7.3-4.2,16.7-8.4,28.2-10.9c9.5-2,20.4-2.9,31.9-1.6c-8.1-0.1-15.7,0.8-22.6,2.3
			c-11.5,2.5-20.9,6.8-28.2,11c-7.3,4.2-12.4,8.5-15.8,11.5c-1.7,1.5-2.9,2.7-3.7,3.5c-0.8,0.8-1.3,1.2-1.3,1.2s0.4-0.4,1.3-1.2
			c0.9-0.8,2-2.1,3.8-3.5c3.4-3,8.5-7.2,15.8-11.4c7.3-4.2,16.7-8.4,28.2-10.9c8-1.7,17-2.6,26.5-2c1,0.2,2.1,0.3,3.1,0.5
			c7.1,1.4,14.3,3.6,21.4,6.7c7.1,3.1,14,7.3,20.5,12.4c6.5,5,12.5,11.2,17.7,18c2.1,2.9,4.2,5.9,6,9c-4.2-4.7-8.7-9-13.5-12.6
			c-6.6-5.1-13.6-9.2-20.7-12.3c-7.2-3.1-14.4-5.3-21.5-6.6c-14.3-2.6-27.8-1.8-39.2,0.7c-11.5,2.5-20.9,6.8-28.2,11
			c-7.3,4.2-12.4,8.5-15.8,11.5c-1.7,1.4-2.9,2.7-3.7,3.5c-0.8,0.8-1.3,1.2-1.3,1.2s0.5-0.4,1.3-1.2c0.9-0.8,2-2.1,3.8-3.5
			c3.4-3,8.5-7.2,15.8-11.4c7.3-4.2,16.7-8.4,28.2-10.9c11.4-2.5,24.8-3.2,39-0.5c7.1,1.4,14.3,3.6,21.4,6.7
			c7.1,3.1,14,7.3,20.5,12.4c5.8,4.5,11.1,9.8,15.9,15.7c0.8,1.4,1.5,2.9,2.2,4.3l1.4,3c0.5,1,0.9,2,1.3,3.1
			c6.7,16.7,8.7,35.9,5.1,54.4c-3.5,18.5-12.8,36.2-26.2,49.8c-13.3,13.7-30.8,23.3-49.2,27.2c-8.7,1.9-17.6,2.5-26.3,2
			c-6.5-1-12.8-2.6-18.8-4.9c-1.1-0.4-2.1-0.8-3.2-1.2l-3.1-1.3c-2-1-4-1.9-5.9-2.9c-3.9-2.1-7.6-4.5-11.1-7
			c-6.9-5.1-13.2-11-18.4-17.4c-5.2-6.4-9.5-13.2-12.8-20.3c-3.3-7-5.6-14.2-7.1-21.3c-0.7-3.3-1.2-6.6-1.6-9.9
			c0.2-5.4,0.8-10.5,1.7-15.3c2.2-11.5,6.3-21,10.3-28.4c4-7.4,8.1-12.6,11.1-16.1c1.4-1.8,2.7-3,3.4-3.8c0.8-0.9,1.2-1.3,1.2-1.3
			s-0.4,0.4-1.2,1.3c-0.8,0.9-2,2.1-3.5,3.8c-2.9,3.4-7.1,8.6-11.2,16c-4.1,7.4-8.2,16.9-10.5,28.4c-0.8,4-1.4,8.3-1.7,12.8
			c-0.7-9.5-0.1-18.6,1.5-26.6c2.2-11.5,6.2-21,10.3-28.4c4-7.4,8.2-12.6,11.1-16.1c1.4-1.8,2.6-3,3.4-3.8c0.8-0.9,1.2-1.3,1.2-1.3
			s-0.4,0.4-1.2,1.3c-0.8,0.9-2,2.1-3.4,3.8c-2.9,3.4-7.1,8.6-11.2,16c-4.1,7.3-8.2,16.9-10.4,28.4c-1.8,8.9-2.5,19-1.3,29.7
			c-0.3,7.4,0.2,15.3,1.9,23.4c1.5,7.1,3.8,14.3,7.1,21.4c0.3,0.7,0.6,1.3,0.9,2c-4.1-5.5-7.6-11.2-10.3-17.1
			c-3.3-7-5.6-14.2-7.1-21.3c-3-14.1-2.5-27.6-0.3-39.1c2.2-11.5,6.2-21,10.3-28.4c4-7.4,8.2-12.7,11.1-16.1c1.4-1.8,2.7-3,3.4-3.8
			c0.8-0.9,1.2-1.3,1.2-1.3s-0.4,0.5-1.2,1.3c-0.8,0.9-2,2.1-3.4,3.8c-3,3.4-7.1,8.6-11.2,16c-4.1,7.4-8.2,16.9-10.4,28.4
			C136.9,595.5,136.4,609,139.3,623.2z M341.1,636.2c-1.8,9.2-4.9,18.3-9.4,26.7c-2.2,4.2-4.8,8.3-7.5,12.1c-2.8,3.9-6,7.5-9.2,10.9
			c-13.4,13.8-30.8,23.3-49.2,27.2c-18.4,4-37.7,2.4-54.5-3.9c-1.1-0.4-2.1-0.8-3.1-1.2l-3.1-1.3c-2-1-4-1.9-5.9-3
			c-3.9-2-7.6-4.5-11.1-7c-6.9-5.1-13.2-11-18.4-17.4c-3.1-3.9-6-7.9-8.4-12.1c4.8,5.6,10.3,10.6,16.5,15.2c3.5,2.5,7.2,5,11.1,7.1
			c1.9,1.1,4,2,6,3l3.1,1.3c1,0.5,2.1,0.9,3.1,1.3c9.1,3.4,18.9,5.5,28.9,6.1c11.6,1.8,23.8,1.6,35.6-0.9
			c18.7-3.9,36.4-13.5,50-27.4c13.6-13.9,22.8-31.8,26.3-50.6c0.4-2.3,0.8-4.5,1-6.8C342.9,622.5,342.4,629.4,341.1,636.2z
			 M321.1,554.5c-2.1-3.9-4.7-7.5-7.3-11c-5.3-6.9-11.4-13-18-18.1c-6.6-5.1-13.5-9.2-20.7-12.3c-6.6-2.8-13.2-4.9-19.7-6.2
			c2.5,0.3,5,0.6,7.5,1.1c7.1,1.4,14.3,3.6,21.4,6.7c7.1,3.1,14,7.3,20.5,12.4c6.5,5,12.5,11.2,17.8,18c2.6,3.5,5.1,7.1,7.2,10.9
			c1.1,1.9,2.1,3.9,3.1,5.9l1.4,3c0.5,1,0.9,2,1.3,3.1c4,10.1,6.3,21.1,6.7,32.3c-1.2-6.5-3-12.7-5.4-18.7c-0.4-1.1-0.8-2.1-1.3-3.1
			l-1.4-3.1c-1-2-2-4-3.1-5.9c-2.2-3.9-4.7-7.5-7.3-11c-0.5-0.7-1-1.3-1.5-1.9C321.9,555.8,321.5,555.1,321.1,554.5z M256,699.5
			c18.7-3.9,36.4-13.5,50-27.4c13.6-13.9,22.8-31.8,26.3-50.6c3.6-18.7,1.4-38.1-5.3-54.9c-0.4-1.1-0.9-2.1-1.3-3.1l-1.3-2.9
			c2.1,2.9,4.2,6,5.9,9.2c1.2,1.9,2.1,3.9,3.1,5.9l1.4,3c0.5,1,0.9,2.1,1.3,3.1c3.2,8.1,5.3,16.7,6.2,25.6
			c-0.2,4.9-0.7,9.9-1.7,14.8c-1.8,9.2-4.9,18.3-9.4,26.7c-2.2,4.2-4.8,8.3-7.5,12.1c-2.8,3.9-6,7.5-9.3,10.9
			c-13.3,13.7-30.8,23.3-49.2,27.2c-7.9,1.7-16,2.4-23.9,2.1C246.2,701.1,251.1,700.5,256,699.5z M156.8,659.2
			c-3.3-7-5.6-14.2-7.1-21.3c-1.5-7.2-2.1-14.3-2.1-21c0.3,2.4,0.7,4.8,1.2,7.2c1.5,7.1,3.8,14.3,7.1,21.4c3.2,7.1,7.6,14,12.8,20.5
			c5.2,6.5,11.4,12.4,18.4,17.6c3.6,2.5,7.2,5,11.2,7.1c1.9,1.1,4,2,6,3l3.1,1.3c1,0.5,2.1,0.9,3.1,1.2c3,1.1,5.9,2.1,9,2.9
			c-6.2-1-12.3-2.6-18.1-4.8c-1.1-0.4-2.1-0.8-3.1-1.2l-3.1-1.3c-2-1-4-1.9-6-3c-3.9-2-7.6-4.4-11.1-6.9c-6.9-5.1-13.2-11-18.4-17.4
			c-0.2-0.2-0.3-0.4-0.5-0.6C158.3,662.4,157.5,660.8,156.8,659.2z"/>
		<path id="XMLID_96_" d="M212.7,489.2c1.5,7.1,3.8,14.3,7.1,21.4c3.2,7,7.4,13.8,12.5,20.1c2.8,5.3,6.2,10.4,10.2,15.2
			c5.2,6.5,11.4,12.4,18.4,17.6c3.5,2.5,7.2,5,11.2,7.1c1.9,1.1,4,2,6,3l3.1,1.3c1,0.5,2.1,0.9,3.1,1.2c17,6.4,36.4,8.2,55,4.2
			c18.7-3.8,36.5-13.5,50-27.3c13.6-13.9,22.8-31.8,26.3-50.6c1.8-9.5,2.1-19.1,1.2-28.5c0.5-14-2-27.8-7-40.3
			c-0.4-1.1-0.8-2.1-1.3-3.1l-1.4-3.1c-1-2-2-4-3.1-5.9c-2.2-3.9-4.7-7.5-7.3-11c-5.3-6.9-11.4-13-18-18.1
			c-6.6-5.1-13.6-9.2-20.7-12.3c-7.2-3.1-14.4-5.3-21.5-6.6c-4.1-0.8-8.2-1.2-12.2-1.4c-13.2-2.1-25.7-1.2-36.5,1.1
			c-11.5,2.5-20.9,6.8-28.2,11c-7.3,4.2-12.4,8.5-15.8,11.5c-1.7,1.5-2.9,2.7-3.7,3.5c-0.8,0.8-1.3,1.2-1.3,1.2s0.4-0.4,1.3-1.2
			c0.8-0.8,2-2.1,3.7-3.5c3.4-3,8.5-7.2,15.8-11.4c7.3-4.2,16.7-8.4,28.2-10.9c9.5-2,20.4-2.9,31.9-1.5c-8.1-0.1-15.7,0.8-22.6,2.3
			c-11.5,2.5-20.9,6.8-28.2,11c-7.3,4.2-12.4,8.5-15.8,11.5c-1.7,1.5-2.9,2.7-3.7,3.5c-0.8,0.8-1.3,1.2-1.3,1.2s0.4-0.4,1.3-1.2
			c0.8-0.8,2-2.1,3.7-3.5c3.4-3,8.5-7.2,15.8-11.4c7.3-4.2,16.7-8.4,28.2-10.9c8-1.7,17-2.6,26.5-2c1,0.2,2.1,0.3,3.1,0.5
			c7.1,1.4,14.3,3.6,21.4,6.7c7.1,3.1,14,7.3,20.5,12.4c6.5,5,12.5,11.2,17.7,18c2.1,2.9,4.2,5.9,6,9c-4.2-4.7-8.7-9-13.5-12.6
			c-6.6-5.1-13.6-9.2-20.7-12.3c-7.2-3.1-14.4-5.3-21.5-6.6c-14.3-2.6-27.8-1.8-39.2,0.7c-11.5,2.5-21,6.8-28.2,11
			c-7.3,4.2-12.4,8.5-15.8,11.5c-1.7,1.4-2.9,2.7-3.7,3.5c-0.9,0.8-1.3,1.2-1.3,1.2s0.5-0.4,1.3-1.2c0.9-0.8,2-2.1,3.8-3.5
			c3.4-3,8.5-7.2,15.8-11.4c7.3-4.2,16.7-8.4,28.2-10.9c11.4-2.5,24.8-3.2,39-0.5c7.1,1.4,14.3,3.6,21.4,6.7
			c7.1,3.1,14,7.3,20.5,12.3c5.8,4.5,11.1,9.8,15.9,15.7c0.8,1.4,1.5,2.9,2.2,4.3l1.4,3c0.5,1,0.9,2.1,1.3,3.1
			c6.7,16.7,8.7,35.9,5.1,54.4c-3.5,18.5-12.8,36.2-26.2,49.8c-13.3,13.7-30.8,23.3-49.2,27.2c-8.7,1.9-17.6,2.5-26.3,2
			c-6.5-1-12.8-2.6-18.8-4.9c-1.1-0.4-2.1-0.8-3.1-1.2l-3.1-1.3c-2-1-4-1.9-5.9-2.9c-3.9-2.1-7.6-4.5-11.1-7
			c-6.9-5.1-13.2-11-18.4-17.4c-5.2-6.4-9.5-13.2-12.8-20.3c-3.3-7-5.6-14.2-7.1-21.3c-0.7-3.3-1.2-6.7-1.6-9.9
			c0.2-5.4,0.8-10.5,1.7-15.3c2.2-11.5,6.3-21.1,10.3-28.4c4-7.4,8.1-12.6,11.1-16.1c1.4-1.8,2.7-3,3.4-3.8c0.8-0.9,1.2-1.3,1.2-1.3
			s-0.4,0.4-1.2,1.3c-0.8,0.9-2,2.1-3.5,3.8c-2.9,3.4-7.1,8.6-11.2,16c-4.1,7.4-8.2,16.9-10.5,28.4c-0.8,4-1.4,8.3-1.7,12.7
			c-0.7-9.5-0.1-18.6,1.5-26.6c2.2-11.5,6.2-21.1,10.3-28.4c4-7.4,8.2-12.6,11.1-16.1c1.4-1.8,2.6-3,3.4-3.8
			c0.8-0.9,1.2-1.3,1.2-1.3s-0.4,0.4-1.2,1.3c-0.8,0.9-2,2.1-3.4,3.8c-2.9,3.4-7.1,8.6-11.2,16c-4.1,7.3-8.2,16.9-10.4,28.4
			c-1.8,8.9-2.5,19-1.3,29.7c-0.3,7.4,0.2,15.3,1.9,23.4c1.5,7.1,3.8,14.3,7.1,21.4c0.3,0.7,0.6,1.3,0.9,2
			c-4.1-5.5-7.6-11.2-10.3-17.1c-3.3-7-5.6-14.2-7.1-21.3c-3-14.1-2.5-27.6-0.3-39.1c2.2-11.5,6.2-21,10.3-28.4
			c4-7.4,8.2-12.7,11.1-16.1c1.4-1.8,2.7-3,3.4-3.8c0.8-0.9,1.2-1.3,1.2-1.3s-0.4,0.5-1.2,1.3c-0.8,0.9-2,2.1-3.4,3.8
			c-3,3.4-7.1,8.6-11.2,16c-4.1,7.4-8.2,16.9-10.5,28.4C210.3,461.5,209.8,475,212.7,489.2z M414.5,502.2
			c-1.8,9.2-4.9,18.3-9.4,26.7c-2.2,4.2-4.8,8.2-7.5,12.1c-2.8,3.9-6,7.5-9.2,10.9c-13.4,13.8-30.8,23.3-49.2,27.2
			c-18.4,4-37.7,2.4-54.5-3.9c-1.1-0.4-2.1-0.8-3.1-1.2l-3.1-1.3c-2-1-4-1.9-5.9-3c-3.9-2.1-7.6-4.5-11.1-7
			c-6.9-5.1-13.2-11-18.4-17.4c-3.2-3.9-6-7.9-8.4-12.1c4.8,5.5,10.3,10.6,16.5,15.2c3.5,2.5,7.2,5,11.1,7.1c1.9,1.1,4,2,6,3
			l3.1,1.3c1,0.5,2.1,0.9,3.1,1.3c9.1,3.4,18.9,5.5,28.9,6.1c11.6,1.8,23.8,1.6,35.6-0.9c18.7-3.8,36.4-13.5,50-27.3
			c13.6-13.9,22.8-31.8,26.3-50.6c0.4-2.3,0.8-4.5,1-6.8C416.4,488.5,415.8,495.4,414.5,502.2z M394.5,420.5
			c-2.2-3.9-4.7-7.5-7.3-11c-5.3-6.9-11.4-13-18-18.1c-6.6-5.1-13.6-9.2-20.7-12.3c-6.6-2.8-13.2-4.9-19.7-6.2
			c2.5,0.3,5,0.6,7.5,1.1c7.1,1.4,14.3,3.6,21.4,6.7c7.1,3.1,14,7.3,20.5,12.4c6.5,5,12.5,11.2,17.8,18c2.6,3.5,5.1,7.1,7.2,11
			c1.1,1.9,2.1,3.9,3.1,5.9l1.4,3c0.5,1,0.9,2,1.3,3.1c4,10.1,6.3,21.1,6.7,32.3c-1.2-6.5-3-12.7-5.4-18.7c-0.4-1.1-0.9-2.1-1.3-3.1
			l-1.4-3.1c-1-2-2-4-3.1-5.9c-2.2-3.9-4.7-7.5-7.3-11c-0.5-0.7-1-1.3-1.5-1.9C395.3,421.8,394.9,421.1,394.5,420.5z M329.4,565.5
			c18.7-3.9,36.4-13.5,50-27.4c13.6-13.9,22.8-31.8,26.3-50.6c3.6-18.7,1.4-38.1-5.3-54.9c-0.4-1.1-0.8-2.1-1.3-3.1l-1.3-2.9
			c2.1,3,4.2,6,5.9,9.3c1.2,1.9,2.1,3.9,3.1,5.9l1.4,3.1c0.5,1,0.9,2,1.3,3.1c3.2,8.1,5.3,16.8,6.2,25.6c-0.2,4.9-0.7,9.9-1.7,14.8
			c-1.8,9.2-4.9,18.3-9.4,26.7c-2.2,4.2-4.8,8.3-7.5,12.1c-2.8,3.8-6,7.5-9.3,10.9c-13.3,13.7-30.8,23.3-49.2,27.2
			c-7.9,1.7-16,2.4-23.9,2.1C319.6,567.1,324.5,566.5,329.4,565.5z M230.2,525.2c-3.3-7-5.6-14.2-7.1-21.3c-1.5-7.2-2.1-14.3-2.1-21
			c0.3,2.4,0.7,4.8,1.2,7.2c1.5,7.1,3.8,14.3,7.1,21.4c3.2,7.1,7.6,14,12.8,20.5c5.2,6.5,11.4,12.4,18.4,17.6
			c3.6,2.5,7.2,5,11.2,7.1c1.9,1.1,4,2,6,3l3.1,1.3c1,0.5,2.1,0.9,3.1,1.2c3,1.1,5.9,2.1,9,2.9c-6.2-1-12.3-2.6-18.1-4.8
			c-1.1-0.4-2.1-0.8-3.1-1.2l-3.1-1.3c-2-1-4-1.9-6-3c-3.9-2-7.6-4.4-11.1-6.9c-6.9-5.1-13.2-11-18.4-17.4c-0.2-0.2-0.3-0.4-0.5-0.6
			C231.7,528.4,230.9,526.8,230.2,525.2z"/>
		<path id="XMLID_90_" d="M139.3,360.7c1.5,7.1,3.8,14.3,7.1,21.4c3.2,7,7.4,13.8,12.5,20.1c2.8,5.3,6.2,10.4,10.2,15.2
			c5.2,6.5,11.4,12.4,18.4,17.6c3.5,2.5,7.2,5,11.2,7.1c1.9,1.1,4,2,6,3l3.1,1.3c1,0.5,2.1,0.9,3.1,1.2c17,6.4,36.4,8.2,55,4.2
			c18.7-3.8,36.5-13.5,50-27.3c13.6-13.9,22.8-31.8,26.3-50.6c1.8-9.5,2.1-19.1,1.2-28.5c0.5-14-2-27.8-7-40.3
			c-0.4-1.1-0.8-2.1-1.3-3.1l-1.4-3.1c-1-2-2-4-3.1-5.9c-2.2-3.9-4.7-7.5-7.3-11c-5.3-6.9-11.4-13-18-18.1
			c-6.6-5.1-13.6-9.2-20.7-12.3c-7.2-3.1-14.4-5.3-21.5-6.6c-4.1-0.8-8.2-1.2-12.2-1.4c-13.2-2.1-25.7-1.2-36.5,1.1
			c-11.5,2.5-20.9,6.8-28.2,11c-7.3,4.2-12.4,8.5-15.8,11.5c-1.7,1.5-2.9,2.7-3.7,3.5c-0.8,0.8-1.3,1.2-1.3,1.2s0.4-0.4,1.3-1.2
			c0.8-0.8,2-2,3.7-3.5c3.4-3,8.5-7.2,15.8-11.4c7.3-4.2,16.7-8.4,28.2-10.9c9.5-2,20.4-2.9,31.9-1.5c-8.1-0.1-15.7,0.8-22.6,2.3
			c-11.5,2.5-20.9,6.8-28.2,11c-7.3,4.2-12.4,8.5-15.8,11.5c-1.7,1.5-2.9,2.7-3.7,3.5c-0.9,0.8-1.3,1.2-1.3,1.2s0.4-0.4,1.3-1.2
			c0.8-0.8,2-2.1,3.7-3.5c3.4-3,8.5-7.2,15.8-11.4c7.3-4.2,16.7-8.4,28.2-10.9c8-1.7,17-2.6,26.5-2c1,0.2,2.1,0.3,3.2,0.5
			c7.1,1.4,14.3,3.6,21.4,6.7c7.1,3.1,14,7.3,20.5,12.4c6.5,5,12.5,11.2,17.7,18c2.1,2.9,4.2,5.9,6,9c-4.2-4.7-8.7-9-13.5-12.6
			c-6.6-5.1-13.6-9.2-20.7-12.3c-7.2-3.1-14.4-5.3-21.5-6.6c-14.2-2.6-27.8-1.8-39.2,0.7c-11.5,2.5-21,6.8-28.2,11
			c-7.3,4.2-12.4,8.5-15.8,11.5c-1.7,1.4-2.9,2.7-3.7,3.5c-0.8,0.8-1.3,1.2-1.3,1.2s0.5-0.4,1.3-1.2c0.9-0.8,2-2.1,3.8-3.5
			c3.4-3,8.5-7.2,15.8-11.4c7.3-4.2,16.7-8.4,28.2-10.9c11.4-2.5,24.8-3.2,39-0.5c7.1,1.4,14.3,3.6,21.4,6.7
			c7.1,3.1,14,7.3,20.5,12.4c5.8,4.5,11.1,9.8,15.9,15.7c0.8,1.4,1.5,2.9,2.2,4.3l1.4,3c0.5,1,0.9,2.1,1.3,3.1
			c6.7,16.7,8.7,35.9,5.1,54.4c-3.5,18.5-12.8,36.2-26.2,49.8c-13.3,13.7-30.8,23.3-49.2,27.2c-8.7,1.9-17.6,2.5-26.3,2
			c-6.5-1-12.8-2.6-18.8-4.9c-1.1-0.4-2.1-0.8-3.1-1.2l-3.1-1.3c-2-1-4-1.9-5.9-2.9c-3.9-2.1-7.6-4.5-11.1-7
			c-6.9-5.1-13.2-11-18.4-17.4c-5.2-6.4-9.5-13.2-12.8-20.3c-3.3-7-5.6-14.2-7.1-21.3c-0.7-3.3-1.2-6.6-1.6-9.9
			c0.2-5.4,0.8-10.5,1.7-15.3c2.2-11.5,6.3-21,10.3-28.4c4-7.4,8.1-12.6,11.1-16.1c1.4-1.8,2.7-3,3.4-3.8c0.8-0.8,1.2-1.3,1.2-1.3
			s-0.4,0.4-1.2,1.3c-0.8,0.9-2,2.1-3.5,3.8c-2.9,3.4-7.1,8.6-11.2,16c-4.1,7.4-8.2,16.9-10.5,28.4c-0.8,4-1.4,8.3-1.7,12.8
			c-0.7-9.5-0.1-18.6,1.5-26.6c2.2-11.5,6.2-21.1,10.3-28.4c4-7.4,8.2-12.6,11.1-16.1c1.4-1.8,2.6-3,3.4-3.8
			c0.8-0.9,1.2-1.3,1.2-1.3s-0.4,0.4-1.2,1.3c-0.8,0.9-2,2.1-3.4,3.8c-2.9,3.4-7.1,8.6-11.2,16c-4.1,7.4-8.2,16.9-10.4,28.4
			c-1.8,8.9-2.5,19-1.3,29.7c-0.3,7.4,0.2,15.3,1.9,23.4c1.5,7.1,3.8,14.3,7.1,21.4c0.3,0.7,0.6,1.3,0.9,2
			c-4.1-5.5-7.6-11.2-10.3-17.1c-3.3-7-5.6-14.2-7.1-21.3c-3-14.1-2.5-27.6-0.3-39.1c2.2-11.5,6.2-21.1,10.3-28.4
			c4-7.4,8.2-12.7,11.1-16.1c1.4-1.8,2.7-3,3.4-3.8c0.8-0.9,1.2-1.3,1.2-1.3s-0.4,0.4-1.2,1.3c-0.8,0.9-2,2.1-3.4,3.8
			c-3,3.4-7.1,8.6-11.2,16c-4.1,7.4-8.2,16.9-10.4,28.4C136.9,333,136.4,346.5,139.3,360.7z M341.1,373.7
			c-1.8,9.2-4.9,18.3-9.4,26.7c-2.2,4.2-4.8,8.3-7.5,12.1c-2.8,3.9-6,7.5-9.2,10.9c-13.4,13.8-30.8,23.3-49.2,27.2
			c-18.4,4-37.7,2.4-54.5-3.9c-1.1-0.4-2.1-0.8-3.1-1.2l-3.1-1.3c-2-1-4-1.9-5.9-3c-3.9-2.1-7.6-4.5-11.1-7
			c-6.9-5.1-13.2-11-18.4-17.4c-3.1-3.9-6-7.9-8.4-12.1c4.8,5.6,10.3,10.6,16.5,15.2c3.5,2.5,7.2,5,11.1,7.1c1.9,1.1,4,2,6,3
			l3.1,1.3c1,0.5,2.1,0.9,3.1,1.3c9.1,3.4,18.9,5.5,28.9,6.1c11.6,1.8,23.8,1.6,35.6-0.9c18.7-3.9,36.4-13.5,50-27.3
			c13.6-13.9,22.8-31.8,26.3-50.6c0.4-2.3,0.8-4.5,1-6.8C343,360,342.4,366.9,341.1,373.7z M321.1,292c-2.1-3.9-4.7-7.5-7.3-11
			c-5.3-6.9-11.4-13-18-18.1c-6.6-5.1-13.6-9.2-20.7-12.3c-6.6-2.8-13.2-4.9-19.7-6.2c2.5,0.3,5,0.6,7.5,1.1
			c7.1,1.4,14.3,3.6,21.4,6.7c7.1,3.1,14,7.3,20.5,12.4c6.5,5,12.5,11.2,17.8,18c2.6,3.5,5.1,7.1,7.2,11c1.1,1.9,2.1,3.9,3.1,5.9
			l1.4,3c0.5,1,0.9,2,1.3,3.1c4,10.1,6.3,21.1,6.7,32.3c-1.2-6.5-3-12.7-5.4-18.7c-0.4-1.1-0.8-2.1-1.3-3.1l-1.4-3.1
			c-1-2-2-4-3.1-5.9c-2.2-3.9-4.7-7.5-7.3-11c-0.5-0.7-1-1.3-1.5-1.9C321.9,293.3,321.5,292.6,321.1,292z M256,437
			c18.7-3.9,36.4-13.5,50-27.4c13.6-13.9,22.8-31.8,26.3-50.6c3.6-18.7,1.4-38.1-5.3-54.9c-0.4-1.1-0.9-2.1-1.3-3.1l-1.3-2.9
			c2.1,3,4.2,6,5.9,9.3c1.2,1.9,2.1,3.9,3.1,5.9l1.4,3c0.5,1,0.9,2.1,1.3,3.1c3.2,8.1,5.3,16.7,6.2,25.6c-0.2,4.9-0.7,9.9-1.7,14.8
			c-1.8,9.2-4.9,18.3-9.4,26.7c-2.2,4.2-4.8,8.3-7.5,12.1c-2.8,3.9-6,7.5-9.3,10.9c-13.3,13.7-30.8,23.3-49.2,27.2
			c-7.9,1.7-16,2.4-23.9,2.1C246.2,438.6,251.1,438,256,437z M156.8,396.7c-3.3-7-5.6-14.2-7.1-21.3c-1.5-7.2-2.1-14.3-2.1-21
			c0.3,2.4,0.7,4.8,1.2,7.2c1.5,7.1,3.8,14.3,7.1,21.4c3.2,7.1,7.6,14,12.8,20.5c5.2,6.5,11.4,12.4,18.4,17.6
			c3.6,2.5,7.2,5,11.2,7.1c1.9,1.1,4,2,6,3l3.1,1.3c1,0.5,2.1,0.9,3.1,1.2c3,1.1,5.9,2.1,9,2.9c-6.2-1-12.3-2.6-18.1-4.8
			c-1.1-0.4-2.1-0.8-3.1-1.2l-3.1-1.3c-2-1-4-1.9-6-3c-3.9-2-7.6-4.5-11.1-6.9c-6.9-5.1-13.2-11-18.4-17.4c-0.2-0.2-0.3-0.4-0.5-0.6
			C158.3,399.9,157.5,398.3,156.8,396.7z"/>
	</g>
	<g id="XMLID_45_">
		<path id="XMLID_86_" class="st0" d="M498.9,371.1h2.6c0.9,0.1,1.4,0.5,1.4,1.4c0,1.1-5.4,12.5-16.2,34.4
			c-22.9,48.6-47.6,111.1-74,187.6l0.7,3.2c-3.2,7.9-5.4,11.8-6.5,11.8h-2.7c-0.8,0-1.3-0.5-1.3-1.4c6.5-21.1,17.7-53.8,33.7-98.1
			c19.1-48.9,39.5-95,61.1-138.3L498.9,371.1z M495.7,363.9h22.7c17.9,0,60.3,0.9,127.3,2.6c2.2,0.4,3.2,1,3.2,2v1.9l-11.6,1.4
			c0-0.6-0.7-1.3-2.1-2c-57.4-1.7-98.1-2.6-122-2.6h-13c-31.8,0-62.9,0.9-93.4,2.6l-1.4-1.9c1.8-1.3,3.5-1.9,5.1-1.9
			C444.9,364.6,473.2,363.9,495.7,363.9z"/>
		<path id="XMLID_84_" class="st0" d="M494.7,405.8c1.9,0.8,2.9,1.6,3.3,2.5v1.3c-0.5,2.6-9.6,26-27.3,70.2c0,0.2-0.2,1.1-0.7,2.6
			c5.2-8.7,10.3-13,15.1-13h1.9c1,0,1.6,1.1,2,3.2c-1.9,4.5-3.4,9-4.6,13.6c2.8-1.7,7.6-5.8,14.3-12.3h2.6c0.8,0.1,1.2,0.5,1.2,1.2
			v1.4c-7.2,7.8-12.6,12.5-16.2,14.2h-5.8c-0.7,0-1.3-0.6-1.9-1.9v-2.6c0-2,1.1-5.5,3.2-10.4H481c-6,10.3-10.5,15.5-13.6,15.5h-1.3
			c-2.3,0-3.6-0.6-3.9-1.9v-0.6c2.6-9.4,12.5-35.6,29.9-78.6l-0.6-3.3C492.8,406.2,493.8,405.8,494.7,405.8z"/>
		<path id="XMLID_81_" class="st0" d="M509.9,466.9h1.2c3.5,0.4,5.3,1.9,5.3,4.6c0,2.3-4.8,4.9-14.3,7.7c-2.2,4.7-3.2,7.7-3.2,9.1
			h0.6c5.2-0.4,12.4-4.5,21.4-12.4h2.1c0.8,0.1,1.2,0.6,1.2,1.4v1.3c-8.7,8.7-16.2,13-22.7,13h-3.8c-3.1,0-4.6-1.3-4.6-3.8
			c0-2.3,1.1-5,3.2-7.8l-0.6-1.4v-1.3c0.9,0,4.2-3,9.7-9L509.9,466.9z M507.3,473.4h0.5l2.7-2.6
			C508.6,471.6,507.5,472.5,507.3,473.4z"/>
		<path id="XMLID_78_" class="st0" d="M625.4,362.3h3.2c0.8,0,1.3,0.7,1.3,2.1c-20,41.1-36.6,78.8-50,112.9h0.5
			c33.4-1.7,53.3-2.5,59.8-2.5l0.7,1.2v1.4c-0.5,1.6-6.3,2.6-17.6,3.2c-0.5-0.9-0.7-1.6-0.7-2c-4,0.4-18.9,1.3-44.7,2.7
			c-3.4,10-17,42.4-40.9,97.4h-4c-0.9,0-1.4-0.4-1.4-1.3v-0.7c0.7-5.4,2.7-10.4,6-14.9c13-30.2,24.2-57,33.7-80.4l-3.2,0.5
			c-3,0-9.3,0.2-18.9,0.6c0-0.8-0.5-1.2-1.4-1.2c0-2.2,7.2-3.2,21.6-3.2h3.2c17.7-44.1,34.2-80.9,49.3-110.4
			C623.3,364.1,624.4,362.3,625.4,362.3z M706.6,349.3H776c6.9,0,10.4,0.7,10.4,2.1v1.2c-0.9,0-1.4,0.2-1.4,0.7
			c-18.9-0.5-33-0.7-42.2-0.7h-18.1c-22.6,0-65,0.5-127.2,1.4c-3.2,0-5,1.1-5.1,3.2h-0.7c-7.2,0-11.5-1.3-13-3.9
			c0.5-1.7,2.9-2.6,7.2-2.6C645.9,349.8,686.2,349.3,706.6,349.3z"/>
		<path id="XMLID_75_" class="st0" d="M667.9,461.5h2c0.8,0.2,1.3,0.6,1.3,1.4v0.6c-5.2,11.9-7.8,19.7-7.8,23.4h0.5
			c4.7-2.5,10.8-6.5,18.3-11.8h0.6c0.7,0.5,1.6,0.7,2.6,0.7v1.9c-9.9,8.7-17.2,13-22.1,13h-2c-2.7,0-4-1.3-4-3.8v-0.7
			c0-3.1,0.5-5.4,1.4-7.1v-0.7h-0.6c-3.8,5.2-7.7,7.8-11.6,7.8h-1.4c-2.3,0-3.6-0.7-4-2v-1.9c0-5,3.2-9.6,9.7-13.7
			c2.3-1.3,4.5-1.9,6.5-1.9c1.9,0.5,3.5,0.7,4.6,0.7C665.3,463.5,667.3,461.5,667.9,461.5z M647.2,481.6h0.5
			c6.5-5.5,9.7-8.7,9.7-9.7l-1.2-0.6h-1.4c-3.4,1.8-6,5-7.8,9.7V481.6z"/>
		<path id="XMLID_72_" class="st0" d="M725.9,382.5c1.7,0.6,2.6,1.2,2.6,1.9c0,1.3-9.3,21-27.9,59.1l-15.1,36.4h0.7
			c5.3-7.4,10.5-11.1,15.5-11.1h4.6c0.5,0,1.6,1.1,3.2,3.2v2c0,2.8-2.8,7.2-8.4,13c3.2-1.5,8-5.2,14.3-11.1h0.6l3.2,0.7v1.4
			c-9.9,11.2-20.1,16.8-30.6,16.8h-3.3l-3.2-0.5c-4.3,8.9-7.8,14.5-10.3,16.8h-2.7l-1.9-1.3c20.7-52.7,39.1-93.9,55.2-123.4L722,385
			C722.9,383.3,724.2,382.5,725.9,382.5z M685,491v0.5c9-3.9,15.3-9.5,18.8-16.8v-1.4c0-0.9-0.5-1.4-1.4-1.4
			C698.2,473.1,692.4,479.4,685,491z"/>
		<path id="XMLID_69_" class="st0" d="M803.8,381.1h3.2c0.8,0.2,1.3,0.6,1.3,1.4c0,1.1-10.4,24.4-31.1,70.1v0.6h0.6
			c57.5-1.3,89.9-1.9,97.4-1.9l0.7,1.3v0.6c0,0.9-0.5,1.4-1.4,1.4c-59.3,1.3-92.4,2.1-99.3,2.6c-17.3,39.1-29.6,70.1-37.1,92.8v1.4
			c0,1.4,2.8,2.3,8.4,2.5h2.7c0.4,0,0.5,0.2,0.5,0.7l1.4-0.7h1.9c7.9,0,23.5-1.9,46.8-5.8l-1.9-2.6l1.9-1.4h0.6
			c2.6,0,5.9,0.7,9.7,2.1v3.2c-25.3,5.1-44.5,7.7-57.7,7.7H744c-8.2,0-12.3-2.2-12.3-6.5c0-5.8,12.4-37,37.1-93.4h-18.9l-3.2-0.7
			v-2.5c5.7-1.7,11.1-2.6,16.2-2.6h2v1.9h5.9c14.7-34.1,25.2-58,31.7-71.4L803.8,381.1z M996.1,370.1c22.5,0.5,37.5,0.7,44.7,0.7
			l0.7,1.2v1.4c0,1.3-3.1,2.1-9.2,2.6h-0.5l-2.7-1.9h-53.8c-72.7,0-138.9,0.4-198.8,1.2c-0.8-0.4-1.4-0.6-1.9-0.6v-1.3l0.7-1.4
			c2.3,0,6.4-0.2,12.3-0.6C910.2,370.6,979.7,370.1,996.1,370.1z"/>
		<path id="XMLID_67_" class="st0" d="M824.4,468.3h3.8c2.6,1.7,3.9,3.8,3.9,6.5h0.7c3.6-4.3,5.5-6.5,5.8-6.5h2.6
			c0.9,0.1,1.4,0.5,1.4,1.2c0,1.9-2.6,5.9-7.8,11.8c0,1.1,1.1,3.7,3.3,7.7c2.9-1.1,8.4-5.5,16.2-13c0.2,0,1.1-0.2,2.7-0.6
			c1.7,0.7,2.5,1.4,2.5,2v0.7c-10,10.3-17.3,15.5-22,15.5c-4.3-1.9-6.5-4.2-6.5-7.1c-0.8,0-2.8,1.9-6,5.8l-4.5,1.4h-1.4
			c-0.6,0-1.2-0.7-1.9-2c7.3-6.7,11-10.6,11-11.6c-1.3-6.1-3-9.1-5.1-9.1v-1.4C823.1,468.6,823.5,468.3,824.4,468.3z"/>
		<path id="XMLID_65_" class="st0" d="M859.6,464.3h3.8l0.7,3.2c-0.5,2.3-0.7,3.6-0.7,4c4.6-3.5,8.6-5.3,11.8-5.3h1.2
			c3.5,0,5.3,1.8,5.3,5.3v1.9c0,1.8-1.5,4.6-4.6,8.4h0.6c1.2,0,4.7-2.2,10.5-6.5h1.2c0.9,0.4,1.6,0.6,2.1,0.6v3.2
			c-6.9,5.2-13.8,7.8-20.8,7.8c-2.6,2.2-4.8,3.2-6.5,3.2h-2.6c-0.9,0-1.4-0.5-1.4-1.4v-1.2c0-0.8,2.6-2.4,7.8-4.6
			c5.2-5,7.8-8.5,7.8-10.5v-1.2c0-0.9-0.5-1.4-1.4-1.4c-5.5,1.5-10.9,7.5-16.2,18.1c-7.6,14.4-15.8,32.4-24.6,53.9h-1.4l-3.3-0.6
			v-1.4c2.6-7.2,12.4-31.4,29.2-72.7C858.2,465.4,858.6,464.3,859.6,464.3z"/>
		<path id="XMLID_62_" class="st0" d="M899.2,466.9h1.2c3.5,0.4,5.3,1.9,5.3,4.6c0,2.3-4.8,4.9-14.3,7.7c-2.2,4.7-3.2,7.7-3.2,9.1
			h0.6c5.2-0.4,12.4-4.5,21.4-12.4h2.1c0.8,0.1,1.2,0.6,1.2,1.4v1.3c-8.7,8.7-16.2,13-22.7,13h-3.8c-3.1,0-4.6-1.3-4.6-3.8
			c0-2.3,1.1-5,3.2-7.8l-0.6-1.4v-1.3c0.9,0,4.2-3,9.7-9L899.2,466.9z M896.6,473.4h0.5l2.7-2.6
			C897.9,471.6,896.8,472.5,896.6,473.4z"/>
		<path id="XMLID_59_" class="st0" d="M914.7,459.1h0.6c3.9,0,5.9,2.2,5.9,6.5c-1.3,2.9-1.9,4.9-1.9,6c2.5,1.7,4.1,2.5,4.6,2.5v2.6
			c0,0.9-0.7,3.1-2.1,6.5h0.7c8.7-6.1,13.6-9.1,14.9-9.1h0.6c0.9,0.1,1.3,0.5,1.3,1.3v1.4c-7.3,6.9-13.1,10.4-17.6,10.4h-1.2
			c-3.1,0-4.6-1.3-4.6-3.9c1.3-4.1,1.9-6.5,1.9-7.2l-1.3-0.6c-8.2,14.3-14,25.3-17.6,33.1h-3.9c-0.8,0-1.3-0.4-1.3-1.2
			c4-9.6,10-21.5,18.1-35.7c-1.3,0-2.3-2-3.2-6v-2.6C910.4,460.3,912.4,459.1,914.7,459.1z M914.2,465l1.2,0.5v-1.9
			C914.6,463.7,914.2,464.2,914.2,465z"/>
		<path id="XMLID_56_" class="st0" d="M940.4,464.5h2.5c0.7,0,1.3,0.6,1.9,1.9v0.6c0,1.4-2.2,7.3-6.5,17.6v3.2
			c5.7-3.1,12-7.2,18.9-12.3h0.5c0.8,0.4,1.7,0.5,2.7,0.5v2c-7.8,7.2-15.3,12-22.7,14.2h-2c-2.6,0-4-1.3-4-3.8
			c0-3.1,2.4-10,7.2-20.8c-0.5-0.9-0.7-1.5-0.7-1.9L940.4,464.5z M955.9,434.5h4v4c-4.1,1.3-6.8,1.9-7.8,1.9h-1.9
			c-0.9,0-1.4-0.4-1.4-1.3C948.7,438.5,951.1,437,955.9,434.5z"/>
		<path id="XMLID_53_" class="st0" d="M968.9,466.9h1.2c3.5,0.4,5.3,1.9,5.3,4.6c0,2.3-4.8,4.9-14.3,7.7c-2.2,4.7-3.2,7.7-3.2,9.1
			h0.6c5.2-0.4,12.4-4.5,21.4-12.4h2.1c0.8,0.1,1.2,0.6,1.2,1.4v1.3c-8.7,8.7-16.2,13-22.7,13h-3.8c-3.1,0-4.6-1.3-4.6-3.8
			c0-2.3,1.1-5,3.2-7.8l-0.6-1.4v-1.3c0.9,0,4.1-3,9.7-9L968.9,466.9z M966.3,473.4h0.5l2.7-2.6
			C967.6,471.6,966.5,472.5,966.3,473.4z"/>
		<path id="XMLID_51_" class="st0" d="M997.3,464.2h2.6c0.6,0,1.2,0.6,1.9,1.9v2.5c0,2-2.6,8.9-7.8,20.8c1.1,0,6.5-4.8,16.2-14.3
			h3.3c0.8,0.1,1.3,0.6,1.3,1.4v0.7c-9.4,11.2-16.3,16.8-20.7,16.8h-2.5l-3.2-0.5v-3.2c0-2,2.6-8.7,7.7-20.2h-0.6
			c-10.6,13.5-16.5,20.2-17.5,20.2h-4.6c-0.8,0-1.2-0.5-1.2-1.4v-0.7c0-4.9,2.8-10.3,8.4-16.2h1.9c0.9,0.1,1.3,0.6,1.3,1.4v1.3
			l-0.7,1.4h0.7C989.6,468.1,994.1,464.2,997.3,464.2z"/>
		<path id="XMLID_49_" class="st0" d="M1024,467.2c3.8,0.7,5.8,2.3,5.8,4.6c-0.5,3.1-1.4,4.6-2.5,4.6h-3.3c-0.8,0-1.3-0.5-1.3-1.4
			c0.8-1.4,1.3-2.8,1.3-4c-5.5,0-10.5,6.3-14.9,18.9c0.4,0.9,0.6,1.6,0.6,2h1.9c3.7,0,11.7-5.2,24.1-15.5c0.7-0.5,1.6-0.7,2.6-0.7
			h0.6c0.8,0.1,1.3,0.5,1.3,1.3v1.4c-12.2,11.7-22.4,17.6-30.5,17.6c-4.3-0.8-6.5-2.8-6.5-6C1008.1,474.8,1015,467.2,1024,467.2z"/>
		<path id="XMLID_46_" class="st0" d="M1048.6,466.9h1.2c3.5,0.4,5.3,1.9,5.3,4.6c0,2.3-4.8,4.9-14.3,7.7c-2.2,4.7-3.2,7.7-3.2,9.1
			h0.6c5.2-0.4,12.4-4.5,21.4-12.4h2.1c0.8,0.1,1.2,0.6,1.2,1.4v1.3c-8.7,8.7-16.2,13-22.7,13h-3.8c-3.1,0-4.6-1.3-4.6-3.8
			c0-2.3,1.1-5,3.2-7.8l-0.6-1.4v-1.3c0.9,0,4.1-3,9.7-9L1048.6,466.9z M1046,473.4h0.5l2.7-2.6
			C1047.2,471.6,1046.1,472.5,1046,473.4z"/>
	</g>
</g>
</svg>
